<mxfile host="app.diagrams.net" agent="Mozilla/5.0 (Windows NT 10.0; Win64; x64) AppleWebKit/537.36 (KHTML, like Gecko) Chrome/131.0.0.0 Safari/537.36" version="24.8.6">
  <diagram name="Page-1" id="OEHMCAL_28YneDYznHI7">
    <mxGraphModel dx="1050" dy="653" grid="1" gridSize="10" guides="1" tooltips="1" connect="1" arrows="1" fold="1" page="1" pageScale="1" pageWidth="850" pageHeight="1100" math="0" shadow="0">
      <root>
        <mxCell id="0" />
        <mxCell id="1" parent="0" />
        <mxCell id="_YuSK9eMthrJEl9yc5FO-2" value="" style="points=[[0.02,0.015,0],[0.5,0,0],[0.98,0.015,0],[1,0.38,0],[0.895,0.98,0],[0.5,1,0],[0.105,0.98,0],[0,0.38,0]];verticalLabelPosition=bottom;sketch=0;html=1;verticalAlign=top;aspect=fixed;align=center;pointerEvents=1;shape=mxgraph.cisco19.secure_endpoint_pc;fillColor=#005073;strokeColor=none;" vertex="1" parent="1">
          <mxGeometry x="180" y="260" width="50" height="40" as="geometry" />
        </mxCell>
        <mxCell id="_YuSK9eMthrJEl9yc5FO-4" value="" style="verticalLabelPosition=bottom;html=1;verticalAlign=top;align=center;shape=mxgraph.floorplan.laptop;" vertex="1" parent="1">
          <mxGeometry x="80" y="115" width="40" height="35" as="geometry" />
        </mxCell>
        <mxCell id="_YuSK9eMthrJEl9yc5FO-7" value="" style="edgeStyle=segmentEdgeStyle;endArrow=classic;html=1;curved=0;rounded=0;endSize=8;startSize=8;" edge="1" parent="1">
          <mxGeometry width="50" height="50" relative="1" as="geometry">
            <mxPoint x="130" y="140" as="sourcePoint" />
            <mxPoint x="200" y="255" as="targetPoint" />
          </mxGeometry>
        </mxCell>
        <mxCell id="_YuSK9eMthrJEl9yc5FO-8" value="Controller" style="text;html=1;align=center;verticalAlign=middle;resizable=0;points=[];autosize=1;strokeColor=none;fillColor=none;" vertex="1" parent="1">
          <mxGeometry x="165" y="300" width="80" height="30" as="geometry" />
        </mxCell>
        <mxCell id="_YuSK9eMthrJEl9yc5FO-9" value="" style="sketch=0;outlineConnect=0;fontColor=#232F3E;gradientColor=none;fillColor=#DD344C;strokeColor=none;dashed=0;verticalLabelPosition=bottom;verticalAlign=top;align=center;html=1;fontSize=12;fontStyle=0;aspect=fixed;pointerEvents=1;shape=mxgraph.aws4.waf_bad_bot;" vertex="1" parent="1">
          <mxGeometry x="80" y="590" width="78" height="71" as="geometry" />
        </mxCell>
        <mxCell id="_YuSK9eMthrJEl9yc5FO-10" value="" style="sketch=0;outlineConnect=0;fontColor=#232F3E;gradientColor=none;fillColor=#DD344C;strokeColor=none;dashed=0;verticalLabelPosition=bottom;verticalAlign=top;align=center;html=1;fontSize=12;fontStyle=0;aspect=fixed;pointerEvents=1;shape=mxgraph.aws4.waf_bad_bot;" vertex="1" parent="1">
          <mxGeometry x="260" y="310" width="78" height="71" as="geometry" />
        </mxCell>
        <mxCell id="_YuSK9eMthrJEl9yc5FO-11" value="" style="sketch=0;outlineConnect=0;fontColor=#232F3E;gradientColor=none;fillColor=#DD344C;strokeColor=none;dashed=0;verticalLabelPosition=bottom;verticalAlign=top;align=center;html=1;fontSize=12;fontStyle=0;aspect=fixed;pointerEvents=1;shape=mxgraph.aws4.waf_bad_bot;" vertex="1" parent="1">
          <mxGeometry x="408" y="44" width="78" height="71" as="geometry" />
        </mxCell>
        <mxCell id="_YuSK9eMthrJEl9yc5FO-12" value="" style="sketch=0;outlineConnect=0;fontColor=#232F3E;gradientColor=none;fillColor=#DD344C;strokeColor=none;dashed=0;verticalLabelPosition=bottom;verticalAlign=top;align=center;html=1;fontSize=12;fontStyle=0;aspect=fixed;pointerEvents=1;shape=mxgraph.aws4.waf_bad_bot;" vertex="1" parent="1">
          <mxGeometry x="486" y="160" width="78" height="71" as="geometry" />
        </mxCell>
        <mxCell id="_YuSK9eMthrJEl9yc5FO-13" value="" style="sketch=0;outlineConnect=0;fontColor=#232F3E;gradientColor=none;fillColor=#DD344C;strokeColor=none;dashed=0;verticalLabelPosition=bottom;verticalAlign=top;align=center;html=1;fontSize=12;fontStyle=0;aspect=fixed;pointerEvents=1;shape=mxgraph.aws4.waf_bad_bot;" vertex="1" parent="1">
          <mxGeometry x="200" y="390" width="78" height="71" as="geometry" />
        </mxCell>
        <mxCell id="_YuSK9eMthrJEl9yc5FO-14" value="" style="sketch=0;outlineConnect=0;fontColor=#232F3E;gradientColor=none;fillColor=#232F3D;strokeColor=none;dashed=0;verticalLabelPosition=bottom;verticalAlign=top;align=center;html=1;fontSize=12;fontStyle=0;aspect=fixed;pointerEvents=1;shape=mxgraph.aws4.authenticated_user;" vertex="1" parent="1">
          <mxGeometry x="140" y="490" width="78" height="78" as="geometry" />
        </mxCell>
        <mxCell id="_YuSK9eMthrJEl9yc5FO-15" value="" style="sketch=0;outlineConnect=0;fontColor=#232F3E;gradientColor=none;fillColor=#232F3D;strokeColor=none;dashed=0;verticalLabelPosition=bottom;verticalAlign=top;align=center;html=1;fontSize=12;fontStyle=0;aspect=fixed;pointerEvents=1;shape=mxgraph.aws4.authenticated_user;" vertex="1" parent="1">
          <mxGeometry x="380" y="241" width="78" height="78" as="geometry" />
        </mxCell>
        <mxCell id="_YuSK9eMthrJEl9yc5FO-22" value="attacker" style="text;html=1;align=center;verticalAlign=middle;resizable=0;points=[];autosize=1;strokeColor=none;fillColor=none;" vertex="1" parent="1">
          <mxGeometry x="65" y="150" width="70" height="30" as="geometry" />
        </mxCell>
        <mxCell id="_YuSK9eMthrJEl9yc5FO-24" value="Zombie" style="text;html=1;align=center;verticalAlign=middle;resizable=0;points=[];autosize=1;strokeColor=none;fillColor=none;" vertex="1" parent="1">
          <mxGeometry x="504" y="220" width="60" height="30" as="geometry" />
        </mxCell>
        <mxCell id="_YuSK9eMthrJEl9yc5FO-25" value="Zombie" style="text;html=1;align=center;verticalAlign=middle;resizable=0;points=[];autosize=1;strokeColor=none;fillColor=none;" vertex="1" parent="1">
          <mxGeometry x="420" y="115" width="60" height="30" as="geometry" />
        </mxCell>
        <mxCell id="_YuSK9eMthrJEl9yc5FO-26" value="Legitimate&lt;div&gt;User&lt;/div&gt;" style="text;html=1;align=center;verticalAlign=middle;resizable=0;points=[];autosize=1;strokeColor=none;fillColor=none;" vertex="1" parent="1">
          <mxGeometry x="378" y="319" width="80" height="40" as="geometry" />
        </mxCell>
        <mxCell id="_YuSK9eMthrJEl9yc5FO-27" value="Zombie" style="text;html=1;align=center;verticalAlign=middle;resizable=0;points=[];autosize=1;strokeColor=none;fillColor=none;" vertex="1" parent="1">
          <mxGeometry x="278" y="370" width="60" height="30" as="geometry" />
        </mxCell>
        <mxCell id="_YuSK9eMthrJEl9yc5FO-28" value="Zombie" style="text;html=1;align=center;verticalAlign=middle;resizable=0;points=[];autosize=1;strokeColor=none;fillColor=none;" vertex="1" parent="1">
          <mxGeometry x="215" y="450" width="60" height="30" as="geometry" />
        </mxCell>
        <mxCell id="_YuSK9eMthrJEl9yc5FO-30" value="Zombie" style="text;html=1;align=center;verticalAlign=middle;resizable=0;points=[];autosize=1;strokeColor=none;fillColor=none;" vertex="1" parent="1">
          <mxGeometry x="89" y="670" width="60" height="30" as="geometry" />
        </mxCell>
        <mxCell id="_YuSK9eMthrJEl9yc5FO-31" value="Legitimate&lt;div&gt;User&lt;/div&gt;" style="text;html=1;align=center;verticalAlign=middle;resizable=0;points=[];autosize=1;strokeColor=none;fillColor=none;" vertex="1" parent="1">
          <mxGeometry x="135" y="560" width="80" height="40" as="geometry" />
        </mxCell>
        <mxCell id="_YuSK9eMthrJEl9yc5FO-32" value="" style="image;html=1;image=img/lib/clip_art/computers/Server_Tower_128x128.png" vertex="1" parent="1">
          <mxGeometry x="504" y="450" width="196" height="210" as="geometry" />
        </mxCell>
        <mxCell id="_YuSK9eMthrJEl9yc5FO-34" value="" style="edgeStyle=elbowEdgeStyle;elbow=vertical;endArrow=classic;html=1;curved=0;rounded=0;endSize=8;startSize=8;exitX=0.453;exitY=1.06;exitDx=0;exitDy=0;exitPerimeter=0;" edge="1" parent="1" source="_YuSK9eMthrJEl9yc5FO-27">
          <mxGeometry width="50" height="50" relative="1" as="geometry">
            <mxPoint x="350" y="360" as="sourcePoint" />
            <mxPoint x="540" y="440" as="targetPoint" />
          </mxGeometry>
        </mxCell>
        <mxCell id="_YuSK9eMthrJEl9yc5FO-35" value="" style="edgeStyle=elbowEdgeStyle;elbow=vertical;endArrow=classic;html=1;curved=0;rounded=0;endSize=8;startSize=8;" edge="1" parent="1">
          <mxGeometry width="50" height="50" relative="1" as="geometry">
            <mxPoint x="420" y="370" as="sourcePoint" />
            <mxPoint x="580" y="430" as="targetPoint" />
            <Array as="points">
              <mxPoint x="510" y="400" />
            </Array>
          </mxGeometry>
        </mxCell>
        <mxCell id="_YuSK9eMthrJEl9yc5FO-36" value="" style="edgeStyle=elbowEdgeStyle;elbow=vertical;endArrow=classic;html=1;curved=0;rounded=0;endSize=8;startSize=8;" edge="1" parent="1">
          <mxGeometry width="50" height="50" relative="1" as="geometry">
            <mxPoint x="530" y="250" as="sourcePoint" />
            <mxPoint x="610" y="440" as="targetPoint" />
          </mxGeometry>
        </mxCell>
        <mxCell id="_YuSK9eMthrJEl9yc5FO-41" value="" style="endArrow=classic;html=1;rounded=0;entryX=0;entryY=0.75;entryDx=0;entryDy=0;" edge="1" parent="1" target="_YuSK9eMthrJEl9yc5FO-32">
          <mxGeometry width="50" height="50" relative="1" as="geometry">
            <mxPoint x="180" y="640" as="sourcePoint" />
            <mxPoint x="560" y="680" as="targetPoint" />
            <Array as="points" />
          </mxGeometry>
        </mxCell>
        <mxCell id="_YuSK9eMthrJEl9yc5FO-42" value="" style="endArrow=classic;html=1;rounded=0;" edge="1" parent="1">
          <mxGeometry width="50" height="50" relative="1" as="geometry">
            <mxPoint x="220" y="580" as="sourcePoint" />
            <mxPoint x="490" y="560" as="targetPoint" />
            <Array as="points">
              <mxPoint x="330" y="570" />
            </Array>
          </mxGeometry>
        </mxCell>
        <mxCell id="_YuSK9eMthrJEl9yc5FO-43" value="" style="endArrow=classic;html=1;rounded=0;" edge="1" parent="1">
          <mxGeometry width="50" height="50" relative="1" as="geometry">
            <mxPoint x="290" y="470" as="sourcePoint" />
            <mxPoint x="480" y="510" as="targetPoint" />
            <Array as="points" />
          </mxGeometry>
        </mxCell>
        <mxCell id="_YuSK9eMthrJEl9yc5FO-44" value="" style="endArrow=classic;html=1;rounded=0;entryX=0.786;entryY=-0.02;entryDx=0;entryDy=0;entryPerimeter=0;" edge="1" parent="1" target="_YuSK9eMthrJEl9yc5FO-32">
          <mxGeometry width="50" height="50" relative="1" as="geometry">
            <mxPoint x="486" y="95.5" as="sourcePoint" />
            <mxPoint x="670" y="140" as="targetPoint" />
            <Array as="points">
              <mxPoint x="658" y="110" />
            </Array>
          </mxGeometry>
        </mxCell>
        <mxCell id="_YuSK9eMthrJEl9yc5FO-45" value="Http Request" style="text;html=1;align=center;verticalAlign=middle;resizable=0;points=[];autosize=1;strokeColor=none;fillColor=none;" vertex="1" parent="1">
          <mxGeometry x="310" y="490" width="90" height="30" as="geometry" />
        </mxCell>
        <mxCell id="_YuSK9eMthrJEl9yc5FO-46" value="Http Request" style="text;html=1;align=center;verticalAlign=middle;resizable=0;points=[];autosize=1;strokeColor=none;fillColor=none;" vertex="1" parent="1">
          <mxGeometry x="278" y="565" width="90" height="30" as="geometry" />
        </mxCell>
        <mxCell id="_YuSK9eMthrJEl9yc5FO-47" value="Http Request" style="text;html=1;align=center;verticalAlign=middle;resizable=0;points=[];autosize=1;strokeColor=none;fillColor=none;" vertex="1" parent="1">
          <mxGeometry x="300" y="620" width="90" height="30" as="geometry" />
        </mxCell>
        <mxCell id="_YuSK9eMthrJEl9yc5FO-48" value="Http Request" style="text;html=1;align=center;verticalAlign=middle;resizable=0;points=[];autosize=1;strokeColor=none;fillColor=none;" vertex="1" parent="1">
          <mxGeometry x="378" y="420" width="90" height="30" as="geometry" />
        </mxCell>
        <mxCell id="_YuSK9eMthrJEl9yc5FO-49" value="Http Request" style="text;html=1;align=center;verticalAlign=middle;resizable=0;points=[];autosize=1;strokeColor=none;fillColor=none;" vertex="1" parent="1">
          <mxGeometry x="450" y="370" width="90" height="30" as="geometry" />
        </mxCell>
        <mxCell id="_YuSK9eMthrJEl9yc5FO-51" value="Http Request" style="text;html=1;align=center;verticalAlign=middle;resizable=0;points=[];autosize=1;strokeColor=none;fillColor=none;" vertex="1" parent="1">
          <mxGeometry x="530" y="300" width="90" height="30" as="geometry" />
        </mxCell>
        <mxCell id="_YuSK9eMthrJEl9yc5FO-52" value="Http Request" style="text;html=1;align=center;verticalAlign=middle;resizable=0;points=[];autosize=1;strokeColor=none;fillColor=none;" vertex="1" parent="1">
          <mxGeometry x="660" y="250" width="90" height="30" as="geometry" />
        </mxCell>
        <mxCell id="_YuSK9eMthrJEl9yc5FO-53" value="" style="endArrow=none;dashed=1;html=1;dashPattern=1 3;strokeWidth=2;rounded=0;entryX=0.033;entryY=1.127;entryDx=0;entryDy=0;entryPerimeter=0;" edge="1" parent="1" target="_YuSK9eMthrJEl9yc5FO-8">
          <mxGeometry width="50" height="50" relative="1" as="geometry">
            <mxPoint x="110" y="580" as="sourcePoint" />
            <mxPoint x="158" y="359" as="targetPoint" />
            <Array as="points">
              <mxPoint x="158" y="369" />
            </Array>
          </mxGeometry>
        </mxCell>
        <mxCell id="_YuSK9eMthrJEl9yc5FO-54" value="" style="endArrow=none;dashed=1;html=1;dashPattern=1 3;strokeWidth=2;rounded=0;" edge="1" parent="1">
          <mxGeometry width="50" height="50" relative="1" as="geometry">
            <mxPoint x="180" y="480" as="sourcePoint" />
            <mxPoint x="190" y="340" as="targetPoint" />
            <Array as="points" />
          </mxGeometry>
        </mxCell>
        <mxCell id="_YuSK9eMthrJEl9yc5FO-59" value="" style="endArrow=none;dashed=1;html=1;rounded=0;" edge="1" parent="1">
          <mxGeometry width="50" height="50" relative="1" as="geometry">
            <mxPoint x="245" y="281" as="sourcePoint" />
            <mxPoint x="370" y="281" as="targetPoint" />
          </mxGeometry>
        </mxCell>
        <mxCell id="_YuSK9eMthrJEl9yc5FO-60" value="" style="endArrow=none;dashed=1;html=1;rounded=0;" edge="1" parent="1">
          <mxGeometry width="50" height="50" relative="1" as="geometry">
            <mxPoint x="250" y="241" as="sourcePoint" />
            <mxPoint x="470" y="210" as="targetPoint" />
          </mxGeometry>
        </mxCell>
        <mxCell id="_YuSK9eMthrJEl9yc5FO-61" value="" style="endArrow=none;dashed=1;html=1;rounded=0;" edge="1" parent="1">
          <mxGeometry width="50" height="50" relative="1" as="geometry">
            <mxPoint x="260" y="210" as="sourcePoint" />
            <mxPoint x="410" y="140" as="targetPoint" />
          </mxGeometry>
        </mxCell>
        <mxCell id="_YuSK9eMthrJEl9yc5FO-62" value="" style="endArrow=none;dashed=1;html=1;rounded=0;" edge="1" parent="1">
          <mxGeometry width="50" height="50" relative="1" as="geometry">
            <mxPoint x="230" y="390" as="sourcePoint" />
            <mxPoint x="220" y="340" as="targetPoint" />
          </mxGeometry>
        </mxCell>
        <mxCell id="_YuSK9eMthrJEl9yc5FO-64" value="" style="endArrow=none;dashed=1;html=1;rounded=0;exitX=0.972;exitY=0.14;exitDx=0;exitDy=0;exitPerimeter=0;" edge="1" parent="1" source="_YuSK9eMthrJEl9yc5FO-8" target="_YuSK9eMthrJEl9yc5FO-10">
          <mxGeometry width="50" height="50" relative="1" as="geometry">
            <mxPoint x="250" y="320" as="sourcePoint" />
            <mxPoint x="300" y="270" as="targetPoint" />
          </mxGeometry>
        </mxCell>
      </root>
    </mxGraphModel>
  </diagram>
</mxfile>
